<?xml version="1.0" encoding="utf-8" standalone="no"?>
<!DOCTYPE svg PUBLIC "-//W3C//DTD SVG 1.1//EN"
  "http://www.w3.org/Graphics/SVG/1.1/DTD/svg11.dtd">
<svg xmlns:xlink="http://www.w3.org/1999/xlink" width="1008pt" height="504pt" viewBox="0 0 1008 504" xmlns="http://www.w3.org/2000/svg" version="1.1">
 <metadata>
  <rdf:RDF xmlns:dc="http://purl.org/dc/elements/1.1/" xmlns:cc="http://creativecommons.org/ns#" xmlns:rdf="http://www.w3.org/1999/02/22-rdf-syntax-ns#">
   <cc:Work>
    <dc:type rdf:resource="http://purl.org/dc/dcmitype/StillImage"/>
    <dc:date>2024-09-18T13:55:53.368605</dc:date>
    <dc:format>image/svg+xml</dc:format>
    <dc:creator>
     <cc:Agent>
      <dc:title>Matplotlib v3.9.2, https://matplotlib.org/</dc:title>
     </cc:Agent>
    </dc:creator>
   </cc:Work>
  </rdf:RDF>
 </metadata>
 <defs>
  <style type="text/css">*{stroke-linejoin: round; stroke-linecap: butt}</style>
 </defs>
 <g id="figure_1">
  <g id="patch_1">
   <path d="M 0 504 
L 1008 504 
L 1008 0 
L 0 0 
z
" style="fill: #ffffff"/>
  </g>
  <g id="axes_1">
   <g id="patch_2">
    <path d="M 26.315 462.04 
L 461.475 462.04 
L 461.475 26.88 
L 26.315 26.88 
z
" style="fill: #ffffff"/>
   </g>
   <g id="patch_3">
    <path d="M 327.579615 448.650462 
C 332.906036 448.650462 338.015017 446.534252 341.781366 442.767904 
C 345.547714 439.001556 347.663923 433.892575 347.663923 428.566154 
C 347.663923 423.239733 345.547714 418.130752 341.781366 414.364404 
C 338.015017 410.598056 332.906036 408.481846 327.579615 408.481846 
C 322.253195 408.481846 317.144213 410.598056 313.377865 414.364404 
C 309.611517 418.130752 307.495308 423.239733 307.495308 428.566154 
C 307.495308 433.892575 309.611517 439.001556 313.377865 442.767904 
C 317.144213 446.534252 322.253195 448.650462 327.579615 448.650462 
z
" clip-path="url(#p13c97e8cb7)" style="fill: #d3d3d3; stroke: #000000; stroke-linejoin: miter"/>
   </g>
   <g id="patch_4">
    <path d="M 260.631923 180.859692 
C 265.958344 180.859692 271.067325 178.743483 274.833673 174.977135 
C 278.600021 171.210787 280.716231 166.101805 280.716231 160.775385 
C 280.716231 155.448964 278.600021 150.339983 274.833673 146.573634 
C 271.067325 142.807286 265.958344 140.691077 260.631923 140.691077 
C 255.305502 140.691077 250.196521 142.807286 246.430173 146.573634 
C 242.663825 150.339983 240.547615 155.448964 240.547615 160.775385 
C 240.547615 166.101805 242.663825 171.210787 246.430173 174.977135 
C 250.196521 178.743483 255.305502 180.859692 260.631923 180.859692 
z
" clip-path="url(#p13c97e8cb7)" style="fill: #d3d3d3; stroke: #000000; stroke-linejoin: miter"/>
   </g>
   <g id="patch_5">
    <path d="M 361.053462 247.807385 
C 366.379882 247.807385 371.488864 245.691175 375.255212 241.924827 
C 379.02156 238.158479 381.137769 233.049498 381.137769 227.723077 
C 381.137769 222.396656 379.02156 217.287675 375.255212 213.521327 
C 371.488864 209.754979 366.379882 207.638769 361.053462 207.638769 
C 355.727041 207.638769 350.61806 209.754979 346.851711 213.521327 
C 343.085363 217.287675 340.969154 222.396656 340.969154 227.723077 
C 340.969154 233.049498 343.085363 238.158479 346.851711 241.924827 
C 350.61806 245.691175 355.727041 247.807385 361.053462 247.807385 
z
" clip-path="url(#p13c97e8cb7)" style="fill: #d3d3d3; stroke: #000000; stroke-linejoin: miter"/>
   </g>
   <g id="patch_6">
    <path d="M 294.105769 381.702769 
C 299.43219 381.702769 304.541171 379.58656 308.307519 375.820212 
C 312.073868 372.053864 314.190077 366.944882 314.190077 361.618462 
C 314.190077 356.292041 312.073868 351.18306 308.307519 347.416711 
C 304.541171 343.650363 299.43219 341.534154 294.105769 341.534154 
C 288.779349 341.534154 283.670367 343.650363 279.904019 347.416711 
C 276.137671 351.18306 274.021462 356.292041 274.021462 361.618462 
C 274.021462 366.944882 276.137671 372.053864 279.904019 375.820212 
C 283.670367 379.58656 288.779349 381.702769 294.105769 381.702769 
z
" clip-path="url(#p13c97e8cb7)" style="fill: #d3d3d3; stroke: #000000; stroke-linejoin: miter"/>
   </g>
   <g id="patch_7">
    <path d="M 394.527308 180.859692 
C 399.853728 180.859692 404.96271 178.743483 408.729058 174.977135 
C 412.495406 171.210787 414.611615 166.101805 414.611615 160.775385 
C 414.611615 155.448964 412.495406 150.339983 408.729058 146.573634 
C 404.96271 142.807286 399.853728 140.691077 394.527308 140.691077 
C 389.200887 140.691077 384.091906 142.807286 380.325558 146.573634 
C 376.559209 150.339983 374.443 155.448964 374.443 160.775385 
C 374.443 166.101805 376.559209 171.210787 380.325558 174.977135 
C 384.091906 178.743483 389.200887 180.859692 394.527308 180.859692 
z
" clip-path="url(#p13c97e8cb7)" style="fill: #d3d3d3; stroke: #000000; stroke-linejoin: miter"/>
   </g>
   <g id="patch_8">
    <path d="M 428.001154 381.702769 
C 433.327575 381.702769 438.436556 379.58656 442.202904 375.820212 
C 445.969252 372.053864 448.085462 366.944882 448.085462 361.618462 
C 448.085462 356.292041 445.969252 351.18306 442.202904 347.416711 
C 438.436556 343.650363 433.327575 341.534154 428.001154 341.534154 
C 422.674733 341.534154 417.565752 343.650363 413.799404 347.416711 
C 410.033056 351.18306 407.916846 356.292041 407.916846 361.618462 
C 407.916846 366.944882 410.033056 372.053864 413.799404 375.820212 
C 417.565752 379.58656 422.674733 381.702769 428.001154 381.702769 
z
" clip-path="url(#p13c97e8cb7)" style="fill: #d3d3d3; stroke: #000000; stroke-linejoin: miter"/>
   </g>
   <g id="patch_9">
    <path d="M 59.788846 314.755077 
C 65.115267 314.755077 70.224248 312.638868 73.990596 308.872519 
C 77.756944 305.106171 79.873154 299.99719 79.873154 294.670769 
C 79.873154 289.344349 77.756944 284.235367 73.990596 280.469019 
C 70.224248 276.702671 65.115267 274.586462 59.788846 274.586462 
C 54.462425 274.586462 49.353444 276.702671 45.587096 280.469019 
C 41.820748 284.235367 39.704538 289.344349 39.704538 294.670769 
C 39.704538 299.99719 41.820748 305.106171 45.587096 308.872519 
C 49.353444 312.638868 54.462425 314.755077 59.788846 314.755077 
z
" clip-path="url(#p13c97e8cb7)" style="fill: #d3d3d3; stroke: #000000; stroke-linejoin: miter"/>
   </g>
   <g id="patch_10">
    <path d="M 93.262692 113.912 
C 98.589113 113.912 103.698094 111.795791 107.464442 108.029442 
C 111.230791 104.263094 113.347 99.154113 113.347 93.827692 
C 113.347 88.501272 111.230791 83.39229 107.464442 79.625942 
C 103.698094 75.859594 98.589113 73.743385 93.262692 73.743385 
C 87.936272 73.743385 82.82729 75.859594 79.060942 79.625942 
C 75.294594 83.39229 73.178385 88.501272 73.178385 93.827692 
C 73.178385 99.154113 75.294594 104.263094 79.060942 108.029442 
C 82.82729 111.795791 87.936272 113.912 93.262692 113.912 
z
" clip-path="url(#p13c97e8cb7)" style="fill: #d3d3d3; stroke: #000000; stroke-linejoin: miter"/>
   </g>
   <g id="patch_11">
    <path d="M 193.684231 314.755077 
C 199.010651 314.755077 204.119633 312.638868 207.885981 308.872519 
C 211.652329 305.106171 213.768538 299.99719 213.768538 294.670769 
C 213.768538 289.344349 211.652329 284.235367 207.885981 280.469019 
C 204.119633 276.702671 199.010651 274.586462 193.684231 274.586462 
C 188.35781 274.586462 183.248829 276.702671 179.482481 280.469019 
C 175.716132 284.235367 173.599923 289.344349 173.599923 294.670769 
C 173.599923 299.99719 175.716132 305.106171 179.482481 308.872519 
C 183.248829 312.638868 188.35781 314.755077 193.684231 314.755077 
z
" clip-path="url(#p13c97e8cb7)" style="fill: #d3d3d3; stroke: #000000; stroke-linejoin: miter"/>
   </g>
   <g id="patch_12">
    <path d="M 126.736538 448.650462 
C 132.062959 448.650462 137.17194 446.534252 140.938289 442.767904 
C 144.704637 439.001556 146.820846 433.892575 146.820846 428.566154 
C 146.820846 423.239733 144.704637 418.130752 140.938289 414.364404 
C 137.17194 410.598056 132.062959 408.481846 126.736538 408.481846 
C 121.410118 408.481846 116.301136 410.598056 112.534788 414.364404 
C 108.76844 418.130752 106.652231 423.239733 106.652231 428.566154 
C 106.652231 433.892575 108.76844 439.001556 112.534788 442.767904 
C 116.301136 446.534252 121.410118 448.650462 126.736538 448.650462 
z
" clip-path="url(#p13c97e8cb7)" style="fill: #d3d3d3; stroke: #000000; stroke-linejoin: miter"/>
   </g>
   <g id="patch_13">
    <path d="M 227.158077 113.912 
C 232.484498 113.912 237.593479 111.795791 241.359827 108.029442 
C 245.126175 104.263094 247.242385 99.154113 247.242385 93.827692 
C 247.242385 88.501272 245.126175 83.39229 241.359827 79.625942 
C 237.593479 75.859594 232.484498 73.743385 227.158077 73.743385 
C 221.831656 73.743385 216.722675 75.859594 212.956327 79.625942 
C 209.189979 83.39229 207.073769 88.501272 207.073769 93.827692 
C 207.073769 99.154113 209.189979 104.263094 212.956327 108.029442 
C 216.722675 111.795791 221.831656 113.912 227.158077 113.912 
z
" clip-path="url(#p13c97e8cb7)" style="fill: #d3d3d3; stroke: #000000; stroke-linejoin: miter"/>
   </g>
   <g id="patch_14">
    <path d="M 160.210385 247.807385 
C 165.536805 247.807385 170.645787 245.691175 174.412135 241.924827 
C 178.178483 238.158479 180.294692 233.049498 180.294692 227.723077 
C 180.294692 222.396656 178.178483 217.287675 174.412135 213.521327 
C 170.645787 209.754979 165.536805 207.638769 160.210385 207.638769 
C 154.883964 207.638769 149.774983 209.754979 146.008634 213.521327 
C 142.242286 217.287675 140.126077 222.396656 140.126077 227.723077 
C 140.126077 233.049498 142.242286 238.158479 146.008634 241.924827 
C 149.774983 245.691175 154.883964 247.807385 160.210385 247.807385 
z
" clip-path="url(#p13c97e8cb7)" style="fill: #d3d3d3; stroke: #000000; stroke-linejoin: miter"/>
   </g>
   <g id="patch_15">
    <path d="M 327.579615 314.755077 
C 332.906036 314.755077 338.015017 312.638868 341.781366 308.872519 
C 345.547714 305.106171 347.663923 299.99719 347.663923 294.670769 
C 347.663923 289.344349 345.547714 284.235367 341.781366 280.469019 
C 338.015017 276.702671 332.906036 274.586462 327.579615 274.586462 
C 322.253195 274.586462 317.144213 276.702671 313.377865 280.469019 
C 309.611517 284.235367 307.495308 289.344349 307.495308 294.670769 
C 307.495308 299.99719 309.611517 305.106171 313.377865 308.872519 
C 317.144213 312.638868 322.253195 314.755077 327.579615 314.755077 
z
" clip-path="url(#p13c97e8cb7)" style="fill: #d3d3d3; stroke: #000000; stroke-linejoin: miter"/>
   </g>
   <g id="patch_16">
    <path d="M 260.631923 448.650462 
C 265.958344 448.650462 271.067325 446.534252 274.833673 442.767904 
C 278.600021 439.001556 280.716231 433.892575 280.716231 428.566154 
C 280.716231 423.239733 278.600021 418.130752 274.833673 414.364404 
C 271.067325 410.598056 265.958344 408.481846 260.631923 408.481846 
C 255.305502 408.481846 250.196521 410.598056 246.430173 414.364404 
C 242.663825 418.130752 240.547615 423.239733 240.547615 428.566154 
C 240.547615 433.892575 242.663825 439.001556 246.430173 442.767904 
C 250.196521 446.534252 255.305502 448.650462 260.631923 448.650462 
z
" clip-path="url(#p13c97e8cb7)" style="fill: #d3d3d3; stroke: #000000; stroke-linejoin: miter"/>
   </g>
   <g id="patch_17">
    <path d="M 361.053462 113.912 
C 366.379882 113.912 371.488864 111.795791 375.255212 108.029442 
C 379.02156 104.263094 381.137769 99.154113 381.137769 93.827692 
C 381.137769 88.501272 379.02156 83.39229 375.255212 79.625942 
C 371.488864 75.859594 366.379882 73.743385 361.053462 73.743385 
C 355.727041 73.743385 350.61806 75.859594 346.851711 79.625942 
C 343.085363 83.39229 340.969154 88.501272 340.969154 93.827692 
C 340.969154 99.154113 343.085363 104.263094 346.851711 108.029442 
C 350.61806 111.795791 355.727041 113.912 361.053462 113.912 
z
" clip-path="url(#p13c97e8cb7)" style="fill: #d3d3d3; stroke: #000000; stroke-linejoin: miter"/>
   </g>
   <g id="patch_18">
    <path d="M 294.105769 247.807385 
C 299.43219 247.807385 304.541171 245.691175 308.307519 241.924827 
C 312.073868 238.158479 314.190077 233.049498 314.190077 227.723077 
C 314.190077 222.396656 312.073868 217.287675 308.307519 213.521327 
C 304.541171 209.754979 299.43219 207.638769 294.105769 207.638769 
C 288.779349 207.638769 283.670367 209.754979 279.904019 213.521327 
C 276.137671 217.287675 274.021462 222.396656 274.021462 227.723077 
C 274.021462 233.049498 276.137671 238.158479 279.904019 241.924827 
C 283.670367 245.691175 288.779349 247.807385 294.105769 247.807385 
z
" clip-path="url(#p13c97e8cb7)" style="fill: #d3d3d3; stroke: #000000; stroke-linejoin: miter"/>
   </g>
   <g id="patch_19">
    <path d="M 394.527308 448.650462 
C 399.853728 448.650462 404.96271 446.534252 408.729058 442.767904 
C 412.495406 439.001556 414.611615 433.892575 414.611615 428.566154 
C 414.611615 423.239733 412.495406 418.130752 408.729058 414.364404 
C 404.96271 410.598056 399.853728 408.481846 394.527308 408.481846 
C 389.200887 408.481846 384.091906 410.598056 380.325558 414.364404 
C 376.559209 418.130752 374.443 423.239733 374.443 428.566154 
C 374.443 433.892575 376.559209 439.001556 380.325558 442.767904 
C 384.091906 446.534252 389.200887 448.650462 394.527308 448.650462 
z
" clip-path="url(#p13c97e8cb7)" style="fill: #d3d3d3; stroke: #000000; stroke-linejoin: miter"/>
   </g>
   <g id="patch_20">
    <path d="M 428.001154 247.807385 
C 433.327575 247.807385 438.436556 245.691175 442.202904 241.924827 
C 445.969252 238.158479 448.085462 233.049498 448.085462 227.723077 
C 448.085462 222.396656 445.969252 217.287675 442.202904 213.521327 
C 438.436556 209.754979 433.327575 207.638769 428.001154 207.638769 
C 422.674733 207.638769 417.565752 209.754979 413.799404 213.521327 
C 410.033056 217.287675 407.916846 222.396656 407.916846 227.723077 
C 407.916846 233.049498 410.033056 238.158479 413.799404 241.924827 
C 417.565752 245.691175 422.674733 247.807385 428.001154 247.807385 
z
" clip-path="url(#p13c97e8cb7)" style="fill: #d3d3d3; stroke: #000000; stroke-linejoin: miter"/>
   </g>
   <g id="patch_21">
    <path d="M 93.262692 381.702769 
C 98.589113 381.702769 103.698094 379.58656 107.464442 375.820212 
C 111.230791 372.053864 113.347 366.944882 113.347 361.618462 
C 113.347 356.292041 111.230791 351.18306 107.464442 347.416711 
C 103.698094 343.650363 98.589113 341.534154 93.262692 341.534154 
C 87.936272 341.534154 82.82729 343.650363 79.060942 347.416711 
C 75.294594 351.18306 73.178385 356.292041 73.178385 361.618462 
C 73.178385 366.944882 75.294594 372.053864 79.060942 375.820212 
C 82.82729 379.58656 87.936272 381.702769 93.262692 381.702769 
z
" clip-path="url(#p13c97e8cb7)" style="fill: #d3d3d3; stroke: #000000; stroke-linejoin: miter"/>
   </g>
   <g id="patch_22">
    <path d="M 193.684231 180.859692 
C 199.010651 180.859692 204.119633 178.743483 207.885981 174.977135 
C 211.652329 171.210787 213.768538 166.101805 213.768538 160.775385 
C 213.768538 155.448964 211.652329 150.339983 207.885981 146.573634 
C 204.119633 142.807286 199.010651 140.691077 193.684231 140.691077 
C 188.35781 140.691077 183.248829 142.807286 179.482481 146.573634 
C 175.716132 150.339983 173.599923 155.448964 173.599923 160.775385 
C 173.599923 166.101805 175.716132 171.210787 179.482481 174.977135 
C 183.248829 178.743483 188.35781 180.859692 193.684231 180.859692 
z
" clip-path="url(#p13c97e8cb7)" style="fill: #d3d3d3; stroke: #000000; stroke-linejoin: miter"/>
   </g>
   <g id="patch_23">
    <path d="M 126.736538 314.755077 
C 132.062959 314.755077 137.17194 312.638868 140.938289 308.872519 
C 144.704637 305.106171 146.820846 299.99719 146.820846 294.670769 
C 146.820846 289.344349 144.704637 284.235367 140.938289 280.469019 
C 137.17194 276.702671 132.062959 274.586462 126.736538 274.586462 
C 121.410118 274.586462 116.301136 276.702671 112.534788 280.469019 
C 108.76844 284.235367 106.652231 289.344349 106.652231 294.670769 
C 106.652231 299.99719 108.76844 305.106171 112.534788 308.872519 
C 116.301136 312.638868 121.410118 314.755077 126.736538 314.755077 
z
" clip-path="url(#p13c97e8cb7)" style="fill: #d3d3d3; stroke: #000000; stroke-linejoin: miter"/>
   </g>
   <g id="patch_24">
    <path d="M 59.788846 180.859692 
C 65.115267 180.859692 70.224248 178.743483 73.990596 174.977135 
C 77.756944 171.210787 79.873154 166.101805 79.873154 160.775385 
C 79.873154 155.448964 77.756944 150.339983 73.990596 146.573634 
C 70.224248 142.807286 65.115267 140.691077 59.788846 140.691077 
C 54.462425 140.691077 49.353444 142.807286 45.587096 146.573634 
C 41.820748 150.339983 39.704538 155.448964 39.704538 160.775385 
C 39.704538 166.101805 41.820748 171.210787 45.587096 174.977135 
C 49.353444 178.743483 54.462425 180.859692 59.788846 180.859692 
z
" clip-path="url(#p13c97e8cb7)" style="fill: #d3d3d3; stroke: #000000; stroke-linejoin: miter"/>
   </g>
   <g id="patch_25">
    <path d="M 227.158077 381.702769 
C 232.484498 381.702769 237.593479 379.58656 241.359827 375.820212 
C 245.126175 372.053864 247.242385 366.944882 247.242385 361.618462 
C 247.242385 356.292041 245.126175 351.18306 241.359827 347.416711 
C 237.593479 343.650363 232.484498 341.534154 227.158077 341.534154 
C 221.831656 341.534154 216.722675 343.650363 212.956327 347.416711 
C 209.189979 351.18306 207.073769 356.292041 207.073769 361.618462 
C 207.073769 366.944882 209.189979 372.053864 212.956327 375.820212 
C 216.722675 379.58656 221.831656 381.702769 227.158077 381.702769 
z
" clip-path="url(#p13c97e8cb7)" style="fill: #d3d3d3; stroke: #000000; stroke-linejoin: miter"/>
   </g>
   <g id="patch_26">
    <path d="M 160.210385 113.912 
C 165.536805 113.912 170.645787 111.795791 174.412135 108.029442 
C 178.178483 104.263094 180.294692 99.154113 180.294692 93.827692 
C 180.294692 88.501272 178.178483 83.39229 174.412135 79.625942 
C 170.645787 75.859594 165.536805 73.743385 160.210385 73.743385 
C 154.883964 73.743385 149.774983 75.859594 146.008634 79.625942 
C 142.242286 83.39229 140.126077 88.501272 140.126077 93.827692 
C 140.126077 99.154113 142.242286 104.263094 146.008634 108.029442 
C 149.774983 111.795791 154.883964 113.912 160.210385 113.912 
z
" clip-path="url(#p13c97e8cb7)" style="fill: #d3d3d3; stroke: #000000; stroke-linejoin: miter"/>
   </g>
   <g id="patch_27">
    <path d="M 260.631923 314.755077 
C 265.958344 314.755077 271.067325 312.638868 274.833673 308.872519 
C 278.600021 305.106171 280.716231 299.99719 280.716231 294.670769 
C 280.716231 289.344349 278.600021 284.235367 274.833673 280.469019 
C 271.067325 276.702671 265.958344 274.586462 260.631923 274.586462 
C 255.305502 274.586462 250.196521 276.702671 246.430173 280.469019 
C 242.663825 284.235367 240.547615 289.344349 240.547615 294.670769 
C 240.547615 299.99719 242.663825 305.106171 246.430173 308.872519 
C 250.196521 312.638868 255.305502 314.755077 260.631923 314.755077 
z
" clip-path="url(#p13c97e8cb7)" style="fill: #d3d3d3; stroke: #000000; stroke-linejoin: miter"/>
   </g>
   <g id="patch_28">
    <path d="M 361.053462 381.702769 
C 366.379882 381.702769 371.488864 379.58656 375.255212 375.820212 
C 379.02156 372.053864 381.137769 366.944882 381.137769 361.618462 
C 381.137769 356.292041 379.02156 351.18306 375.255212 347.416711 
C 371.488864 343.650363 366.379882 341.534154 361.053462 341.534154 
C 355.727041 341.534154 350.61806 343.650363 346.851711 347.416711 
C 343.085363 351.18306 340.969154 356.292041 340.969154 361.618462 
C 340.969154 366.944882 343.085363 372.053864 346.851711 375.820212 
C 350.61806 379.58656 355.727041 381.702769 361.053462 381.702769 
z
" clip-path="url(#p13c97e8cb7)" style="fill: #d3d3d3; stroke: #000000; stroke-linejoin: miter"/>
   </g>
   <g id="patch_29">
    <path d="M 294.105769 113.912 
C 299.43219 113.912 304.541171 111.795791 308.307519 108.029442 
C 312.073868 104.263094 314.190077 99.154113 314.190077 93.827692 
C 314.190077 88.501272 312.073868 83.39229 308.307519 79.625942 
C 304.541171 75.859594 299.43219 73.743385 294.105769 73.743385 
C 288.779349 73.743385 283.670367 75.859594 279.904019 79.625942 
C 276.137671 83.39229 274.021462 88.501272 274.021462 93.827692 
C 274.021462 99.154113 276.137671 104.263094 279.904019 108.029442 
C 283.670367 111.795791 288.779349 113.912 294.105769 113.912 
z
" clip-path="url(#p13c97e8cb7)" style="fill: #d3d3d3; stroke: #000000; stroke-linejoin: miter"/>
   </g>
   <g id="patch_30">
    <path d="M 394.527308 314.755077 
C 399.853728 314.755077 404.96271 312.638868 408.729058 308.872519 
C 412.495406 305.106171 414.611615 299.99719 414.611615 294.670769 
C 414.611615 289.344349 412.495406 284.235367 408.729058 280.469019 
C 404.96271 276.702671 399.853728 274.586462 394.527308 274.586462 
C 389.200887 274.586462 384.091906 276.702671 380.325558 280.469019 
C 376.559209 284.235367 374.443 289.344349 374.443 294.670769 
C 374.443 299.99719 376.559209 305.106171 380.325558 308.872519 
C 384.091906 312.638868 389.200887 314.755077 394.527308 314.755077 
z
" clip-path="url(#p13c97e8cb7)" style="fill: #d3d3d3; stroke: #000000; stroke-linejoin: miter"/>
   </g>
   <g id="patch_31">
    <path d="M 327.579615 180.859692 
C 332.906036 180.859692 338.015017 178.743483 341.781366 174.977135 
C 345.547714 171.210787 347.663923 166.101805 347.663923 160.775385 
C 347.663923 155.448964 345.547714 150.339983 341.781366 146.573634 
C 338.015017 142.807286 332.906036 140.691077 327.579615 140.691077 
C 322.253195 140.691077 317.144213 142.807286 313.377865 146.573634 
C 309.611517 150.339983 307.495308 155.448964 307.495308 160.775385 
C 307.495308 166.101805 309.611517 171.210787 313.377865 174.977135 
C 317.144213 178.743483 322.253195 180.859692 327.579615 180.859692 
z
" clip-path="url(#p13c97e8cb7)" style="fill: #d3d3d3; stroke: #000000; stroke-linejoin: miter"/>
   </g>
   <g id="patch_32">
    <path d="M 428.001154 113.912 
C 433.327575 113.912 438.436556 111.795791 442.202904 108.029442 
C 445.969252 104.263094 448.085462 99.154113 448.085462 93.827692 
C 448.085462 88.501272 445.969252 83.39229 442.202904 79.625942 
C 438.436556 75.859594 433.327575 73.743385 428.001154 73.743385 
C 422.674733 73.743385 417.565752 75.859594 413.799404 79.625942 
C 410.033056 83.39229 407.916846 88.501272 407.916846 93.827692 
C 407.916846 99.154113 410.033056 104.263094 413.799404 108.029442 
C 417.565752 111.795791 422.674733 113.912 428.001154 113.912 
z
" clip-path="url(#p13c97e8cb7)" style="fill: #d3d3d3; stroke: #000000; stroke-linejoin: miter"/>
   </g>
   <g id="patch_33">
    <path d="M 59.788846 448.650462 
C 65.115267 448.650462 70.224248 446.534252 73.990596 442.767904 
C 77.756944 439.001556 79.873154 433.892575 79.873154 428.566154 
C 79.873154 423.239733 77.756944 418.130752 73.990596 414.364404 
C 70.224248 410.598056 65.115267 408.481846 59.788846 408.481846 
C 54.462425 408.481846 49.353444 410.598056 45.587096 414.364404 
C 41.820748 418.130752 39.704538 423.239733 39.704538 428.566154 
C 39.704538 433.892575 41.820748 439.001556 45.587096 442.767904 
C 49.353444 446.534252 54.462425 448.650462 59.788846 448.650462 
z
" clip-path="url(#p13c97e8cb7)" style="fill: #d3d3d3; stroke: #000000; stroke-linejoin: miter"/>
   </g>
   <g id="patch_34">
    <path d="M 160.210385 381.702769 
C 165.536805 381.702769 170.645787 379.58656 174.412135 375.820212 
C 178.178483 372.053864 180.294692 366.944882 180.294692 361.618462 
C 180.294692 356.292041 178.178483 351.18306 174.412135 347.416711 
C 170.645787 343.650363 165.536805 341.534154 160.210385 341.534154 
C 154.883964 341.534154 149.774983 343.650363 146.008634 347.416711 
C 142.242286 351.18306 140.126077 356.292041 140.126077 361.618462 
C 140.126077 366.944882 142.242286 372.053864 146.008634 375.820212 
C 149.774983 379.58656 154.883964 381.702769 160.210385 381.702769 
z
" clip-path="url(#p13c97e8cb7)" style="fill: #d3d3d3; stroke: #000000; stroke-linejoin: miter"/>
   </g>
   <g id="patch_35">
    <path d="M 93.262692 247.807385 
C 98.589113 247.807385 103.698094 245.691175 107.464442 241.924827 
C 111.230791 238.158479 113.347 233.049498 113.347 227.723077 
C 113.347 222.396656 111.230791 217.287675 107.464442 213.521327 
C 103.698094 209.754979 98.589113 207.638769 93.262692 207.638769 
C 87.936272 207.638769 82.82729 209.754979 79.060942 213.521327 
C 75.294594 217.287675 73.178385 222.396656 73.178385 227.723077 
C 73.178385 233.049498 75.294594 238.158479 79.060942 241.924827 
C 82.82729 245.691175 87.936272 247.807385 93.262692 247.807385 
z
" clip-path="url(#p13c97e8cb7)" style="fill: #d3d3d3; stroke: #000000; stroke-linejoin: miter"/>
   </g>
   <g id="patch_36">
    <path d="M 193.684231 448.650462 
C 199.010651 448.650462 204.119633 446.534252 207.885981 442.767904 
C 211.652329 439.001556 213.768538 433.892575 213.768538 428.566154 
C 213.768538 423.239733 211.652329 418.130752 207.885981 414.364404 
C 204.119633 410.598056 199.010651 408.481846 193.684231 408.481846 
C 188.35781 408.481846 183.248829 410.598056 179.482481 414.364404 
C 175.716132 418.130752 173.599923 423.239733 173.599923 428.566154 
C 173.599923 433.892575 175.716132 439.001556 179.482481 442.767904 
C 183.248829 446.534252 188.35781 448.650462 193.684231 448.650462 
z
" clip-path="url(#p13c97e8cb7)" style="fill: #d3d3d3; stroke: #000000; stroke-linejoin: miter"/>
   </g>
   <g id="patch_37">
    <path d="M 126.736538 180.859692 
C 132.062959 180.859692 137.17194 178.743483 140.938289 174.977135 
C 144.704637 171.210787 146.820846 166.101805 146.820846 160.775385 
C 146.820846 155.448964 144.704637 150.339983 140.938289 146.573634 
C 137.17194 142.807286 132.062959 140.691077 126.736538 140.691077 
C 121.410118 140.691077 116.301136 142.807286 112.534788 146.573634 
C 108.76844 150.339983 106.652231 155.448964 106.652231 160.775385 
C 106.652231 166.101805 108.76844 171.210787 112.534788 174.977135 
C 116.301136 178.743483 121.410118 180.859692 126.736538 180.859692 
z
" clip-path="url(#p13c97e8cb7)" style="fill: #d3d3d3; stroke: #000000; stroke-linejoin: miter"/>
   </g>
   <g id="patch_38">
    <path d="M 227.158077 247.807385 
C 232.484498 247.807385 237.593479 245.691175 241.359827 241.924827 
C 245.126175 238.158479 247.242385 233.049498 247.242385 227.723077 
C 247.242385 222.396656 245.126175 217.287675 241.359827 213.521327 
C 237.593479 209.754979 232.484498 207.638769 227.158077 207.638769 
C 221.831656 207.638769 216.722675 209.754979 212.956327 213.521327 
C 209.189979 217.287675 207.073769 222.396656 207.073769 227.723077 
C 207.073769 233.049498 209.189979 238.158479 212.956327 241.924827 
C 216.722675 245.691175 221.831656 247.807385 227.158077 247.807385 
z
" clip-path="url(#p13c97e8cb7)" style="fill: #d3d3d3; stroke: #000000; stroke-linejoin: miter"/>
   </g>
   <g id="patch_39">
    <path d="M 294.105769 180.859692 
L 253.520888 251.154769 
L 334.690651 251.154769 
z
" clip-path="url(#p13c97e8cb7)" style="fill: #0000ff; stroke: #000000; stroke-width: 2; stroke-linejoin: miter"/>
   </g>
   <g id="patch_40">
    <path d="M 294.105769 140.691077 
L 334.690651 70.396 
L 253.520888 70.396 
z
" clip-path="url(#p13c97e8cb7)" style="fill: #0000ff; stroke: #000000; stroke-width: 2; stroke-linejoin: miter"/>
   </g>
   <g id="patch_41">
    <path d="M 260.631923 227.723077 
C 278.386659 227.723077 295.416596 220.669046 307.97109 208.114552 
C 320.525584 195.560058 327.579615 178.53012 327.579615 160.775385 
C 327.579615 143.020649 320.525584 125.990711 307.97109 113.436217 
C 295.416596 100.881724 278.386659 93.827692 260.631923 93.827692 
C 242.877188 93.827692 225.84725 100.881724 213.292756 113.436217 
C 200.738262 125.990711 193.684231 143.020649 193.684231 160.775385 
C 193.684231 178.53012 200.738262 195.560058 213.292756 208.114552 
C 225.84725 220.669046 242.877188 227.723077 260.631923 227.723077 
L 260.631923 227.723077 
z
" clip-path="url(#p13c97e8cb7)" style="fill: none; stroke-dasharray: 7.4,3.2; stroke-dashoffset: 0; stroke: #008000; stroke-width: 2; stroke-linejoin: miter"/>
   </g>
   <g id="matplotlib.axis_1"/>
   <g id="matplotlib.axis_2"/>
   <g id="patch_42">
    <path d="M 26.315 462.04 
L 26.315 26.88 
" style="fill: none; stroke: #000000; stroke-width: 0.8; stroke-linejoin: miter; stroke-linecap: square"/>
   </g>
   <g id="patch_43">
    <path d="M 461.475 462.04 
L 461.475 26.88 
" style="fill: none; stroke: #000000; stroke-width: 0.8; stroke-linejoin: miter; stroke-linecap: square"/>
   </g>
   <g id="patch_44">
    <path d="M 26.315 462.04 
L 461.475 462.04 
" style="fill: none; stroke: #000000; stroke-width: 0.8; stroke-linejoin: miter; stroke-linecap: square"/>
   </g>
   <g id="patch_45">
    <path d="M 26.315 26.88 
L 461.475 26.88 
" style="fill: none; stroke: #000000; stroke-width: 0.8; stroke-linejoin: miter; stroke-linecap: square"/>
   </g>
   <g id="text_1">
    <!-- Polymer Structure with Radius of Gyration -->
    <g transform="translate(117.697188 20.88) scale(0.12 -0.12)">
     <defs>
      <path id="DejaVuSans-50" d="M 1259 4147 
L 1259 2394 
L 2053 2394 
Q 2494 2394 2734 2622 
Q 2975 2850 2975 3272 
Q 2975 3691 2734 3919 
Q 2494 4147 2053 4147 
L 1259 4147 
z
M 628 4666 
L 2053 4666 
Q 2838 4666 3239 4311 
Q 3641 3956 3641 3272 
Q 3641 2581 3239 2228 
Q 2838 1875 2053 1875 
L 1259 1875 
L 1259 0 
L 628 0 
L 628 4666 
z
" transform="scale(0.015625)"/>
      <path id="DejaVuSans-6f" d="M 1959 3097 
Q 1497 3097 1228 2736 
Q 959 2375 959 1747 
Q 959 1119 1226 758 
Q 1494 397 1959 397 
Q 2419 397 2687 759 
Q 2956 1122 2956 1747 
Q 2956 2369 2687 2733 
Q 2419 3097 1959 3097 
z
M 1959 3584 
Q 2709 3584 3137 3096 
Q 3566 2609 3566 1747 
Q 3566 888 3137 398 
Q 2709 -91 1959 -91 
Q 1206 -91 779 398 
Q 353 888 353 1747 
Q 353 2609 779 3096 
Q 1206 3584 1959 3584 
z
" transform="scale(0.015625)"/>
      <path id="DejaVuSans-6c" d="M 603 4863 
L 1178 4863 
L 1178 0 
L 603 0 
L 603 4863 
z
" transform="scale(0.015625)"/>
      <path id="DejaVuSans-79" d="M 2059 -325 
Q 1816 -950 1584 -1140 
Q 1353 -1331 966 -1331 
L 506 -1331 
L 506 -850 
L 844 -850 
Q 1081 -850 1212 -737 
Q 1344 -625 1503 -206 
L 1606 56 
L 191 3500 
L 800 3500 
L 1894 763 
L 2988 3500 
L 3597 3500 
L 2059 -325 
z
" transform="scale(0.015625)"/>
      <path id="DejaVuSans-6d" d="M 3328 2828 
Q 3544 3216 3844 3400 
Q 4144 3584 4550 3584 
Q 5097 3584 5394 3201 
Q 5691 2819 5691 2113 
L 5691 0 
L 5113 0 
L 5113 2094 
Q 5113 2597 4934 2840 
Q 4756 3084 4391 3084 
Q 3944 3084 3684 2787 
Q 3425 2491 3425 1978 
L 3425 0 
L 2847 0 
L 2847 2094 
Q 2847 2600 2669 2842 
Q 2491 3084 2119 3084 
Q 1678 3084 1418 2786 
Q 1159 2488 1159 1978 
L 1159 0 
L 581 0 
L 581 3500 
L 1159 3500 
L 1159 2956 
Q 1356 3278 1631 3431 
Q 1906 3584 2284 3584 
Q 2666 3584 2933 3390 
Q 3200 3197 3328 2828 
z
" transform="scale(0.015625)"/>
      <path id="DejaVuSans-65" d="M 3597 1894 
L 3597 1613 
L 953 1613 
Q 991 1019 1311 708 
Q 1631 397 2203 397 
Q 2534 397 2845 478 
Q 3156 559 3463 722 
L 3463 178 
Q 3153 47 2828 -22 
Q 2503 -91 2169 -91 
Q 1331 -91 842 396 
Q 353 884 353 1716 
Q 353 2575 817 3079 
Q 1281 3584 2069 3584 
Q 2775 3584 3186 3129 
Q 3597 2675 3597 1894 
z
M 3022 2063 
Q 3016 2534 2758 2815 
Q 2500 3097 2075 3097 
Q 1594 3097 1305 2825 
Q 1016 2553 972 2059 
L 3022 2063 
z
" transform="scale(0.015625)"/>
      <path id="DejaVuSans-72" d="M 2631 2963 
Q 2534 3019 2420 3045 
Q 2306 3072 2169 3072 
Q 1681 3072 1420 2755 
Q 1159 2438 1159 1844 
L 1159 0 
L 581 0 
L 581 3500 
L 1159 3500 
L 1159 2956 
Q 1341 3275 1631 3429 
Q 1922 3584 2338 3584 
Q 2397 3584 2469 3576 
Q 2541 3569 2628 3553 
L 2631 2963 
z
" transform="scale(0.015625)"/>
      <path id="DejaVuSans-20" transform="scale(0.015625)"/>
      <path id="DejaVuSans-53" d="M 3425 4513 
L 3425 3897 
Q 3066 4069 2747 4153 
Q 2428 4238 2131 4238 
Q 1616 4238 1336 4038 
Q 1056 3838 1056 3469 
Q 1056 3159 1242 3001 
Q 1428 2844 1947 2747 
L 2328 2669 
Q 3034 2534 3370 2195 
Q 3706 1856 3706 1288 
Q 3706 609 3251 259 
Q 2797 -91 1919 -91 
Q 1588 -91 1214 -16 
Q 841 59 441 206 
L 441 856 
Q 825 641 1194 531 
Q 1563 422 1919 422 
Q 2459 422 2753 634 
Q 3047 847 3047 1241 
Q 3047 1584 2836 1778 
Q 2625 1972 2144 2069 
L 1759 2144 
Q 1053 2284 737 2584 
Q 422 2884 422 3419 
Q 422 4038 858 4394 
Q 1294 4750 2059 4750 
Q 2388 4750 2728 4690 
Q 3069 4631 3425 4513 
z
" transform="scale(0.015625)"/>
      <path id="DejaVuSans-74" d="M 1172 4494 
L 1172 3500 
L 2356 3500 
L 2356 3053 
L 1172 3053 
L 1172 1153 
Q 1172 725 1289 603 
Q 1406 481 1766 481 
L 2356 481 
L 2356 0 
L 1766 0 
Q 1100 0 847 248 
Q 594 497 594 1153 
L 594 3053 
L 172 3053 
L 172 3500 
L 594 3500 
L 594 4494 
L 1172 4494 
z
" transform="scale(0.015625)"/>
      <path id="DejaVuSans-75" d="M 544 1381 
L 544 3500 
L 1119 3500 
L 1119 1403 
Q 1119 906 1312 657 
Q 1506 409 1894 409 
Q 2359 409 2629 706 
Q 2900 1003 2900 1516 
L 2900 3500 
L 3475 3500 
L 3475 0 
L 2900 0 
L 2900 538 
Q 2691 219 2414 64 
Q 2138 -91 1772 -91 
Q 1169 -91 856 284 
Q 544 659 544 1381 
z
M 1991 3584 
L 1991 3584 
z
" transform="scale(0.015625)"/>
      <path id="DejaVuSans-63" d="M 3122 3366 
L 3122 2828 
Q 2878 2963 2633 3030 
Q 2388 3097 2138 3097 
Q 1578 3097 1268 2742 
Q 959 2388 959 1747 
Q 959 1106 1268 751 
Q 1578 397 2138 397 
Q 2388 397 2633 464 
Q 2878 531 3122 666 
L 3122 134 
Q 2881 22 2623 -34 
Q 2366 -91 2075 -91 
Q 1284 -91 818 406 
Q 353 903 353 1747 
Q 353 2603 823 3093 
Q 1294 3584 2113 3584 
Q 2378 3584 2631 3529 
Q 2884 3475 3122 3366 
z
" transform="scale(0.015625)"/>
      <path id="DejaVuSans-77" d="M 269 3500 
L 844 3500 
L 1563 769 
L 2278 3500 
L 2956 3500 
L 3675 769 
L 4391 3500 
L 4966 3500 
L 4050 0 
L 3372 0 
L 2619 2869 
L 1863 0 
L 1184 0 
L 269 3500 
z
" transform="scale(0.015625)"/>
      <path id="DejaVuSans-69" d="M 603 3500 
L 1178 3500 
L 1178 0 
L 603 0 
L 603 3500 
z
M 603 4863 
L 1178 4863 
L 1178 4134 
L 603 4134 
L 603 4863 
z
" transform="scale(0.015625)"/>
      <path id="DejaVuSans-68" d="M 3513 2113 
L 3513 0 
L 2938 0 
L 2938 2094 
Q 2938 2591 2744 2837 
Q 2550 3084 2163 3084 
Q 1697 3084 1428 2787 
Q 1159 2491 1159 1978 
L 1159 0 
L 581 0 
L 581 4863 
L 1159 4863 
L 1159 2956 
Q 1366 3272 1645 3428 
Q 1925 3584 2291 3584 
Q 2894 3584 3203 3211 
Q 3513 2838 3513 2113 
z
" transform="scale(0.015625)"/>
      <path id="DejaVuSans-52" d="M 2841 2188 
Q 3044 2119 3236 1894 
Q 3428 1669 3622 1275 
L 4263 0 
L 3584 0 
L 2988 1197 
Q 2756 1666 2539 1819 
Q 2322 1972 1947 1972 
L 1259 1972 
L 1259 0 
L 628 0 
L 628 4666 
L 2053 4666 
Q 2853 4666 3247 4331 
Q 3641 3997 3641 3322 
Q 3641 2881 3436 2590 
Q 3231 2300 2841 2188 
z
M 1259 4147 
L 1259 2491 
L 2053 2491 
Q 2509 2491 2742 2702 
Q 2975 2913 2975 3322 
Q 2975 3731 2742 3939 
Q 2509 4147 2053 4147 
L 1259 4147 
z
" transform="scale(0.015625)"/>
      <path id="DejaVuSans-61" d="M 2194 1759 
Q 1497 1759 1228 1600 
Q 959 1441 959 1056 
Q 959 750 1161 570 
Q 1363 391 1709 391 
Q 2188 391 2477 730 
Q 2766 1069 2766 1631 
L 2766 1759 
L 2194 1759 
z
M 3341 1997 
L 3341 0 
L 2766 0 
L 2766 531 
Q 2569 213 2275 61 
Q 1981 -91 1556 -91 
Q 1019 -91 701 211 
Q 384 513 384 1019 
Q 384 1609 779 1909 
Q 1175 2209 1959 2209 
L 2766 2209 
L 2766 2266 
Q 2766 2663 2505 2880 
Q 2244 3097 1772 3097 
Q 1472 3097 1187 3025 
Q 903 2953 641 2809 
L 641 3341 
Q 956 3463 1253 3523 
Q 1550 3584 1831 3584 
Q 2591 3584 2966 3190 
Q 3341 2797 3341 1997 
z
" transform="scale(0.015625)"/>
      <path id="DejaVuSans-64" d="M 2906 2969 
L 2906 4863 
L 3481 4863 
L 3481 0 
L 2906 0 
L 2906 525 
Q 2725 213 2448 61 
Q 2172 -91 1784 -91 
Q 1150 -91 751 415 
Q 353 922 353 1747 
Q 353 2572 751 3078 
Q 1150 3584 1784 3584 
Q 2172 3584 2448 3432 
Q 2725 3281 2906 2969 
z
M 947 1747 
Q 947 1113 1208 752 
Q 1469 391 1925 391 
Q 2381 391 2643 752 
Q 2906 1113 2906 1747 
Q 2906 2381 2643 2742 
Q 2381 3103 1925 3103 
Q 1469 3103 1208 2742 
Q 947 2381 947 1747 
z
" transform="scale(0.015625)"/>
      <path id="DejaVuSans-73" d="M 2834 3397 
L 2834 2853 
Q 2591 2978 2328 3040 
Q 2066 3103 1784 3103 
Q 1356 3103 1142 2972 
Q 928 2841 928 2578 
Q 928 2378 1081 2264 
Q 1234 2150 1697 2047 
L 1894 2003 
Q 2506 1872 2764 1633 
Q 3022 1394 3022 966 
Q 3022 478 2636 193 
Q 2250 -91 1575 -91 
Q 1294 -91 989 -36 
Q 684 19 347 128 
L 347 722 
Q 666 556 975 473 
Q 1284 391 1588 391 
Q 1994 391 2212 530 
Q 2431 669 2431 922 
Q 2431 1156 2273 1281 
Q 2116 1406 1581 1522 
L 1381 1569 
Q 847 1681 609 1914 
Q 372 2147 372 2553 
Q 372 3047 722 3315 
Q 1072 3584 1716 3584 
Q 2034 3584 2315 3537 
Q 2597 3491 2834 3397 
z
" transform="scale(0.015625)"/>
      <path id="DejaVuSans-66" d="M 2375 4863 
L 2375 4384 
L 1825 4384 
Q 1516 4384 1395 4259 
Q 1275 4134 1275 3809 
L 1275 3500 
L 2222 3500 
L 2222 3053 
L 1275 3053 
L 1275 0 
L 697 0 
L 697 3053 
L 147 3053 
L 147 3500 
L 697 3500 
L 697 3744 
Q 697 4328 969 4595 
Q 1241 4863 1831 4863 
L 2375 4863 
z
" transform="scale(0.015625)"/>
      <path id="DejaVuSans-47" d="M 3809 666 
L 3809 1919 
L 2778 1919 
L 2778 2438 
L 4434 2438 
L 4434 434 
Q 4069 175 3628 42 
Q 3188 -91 2688 -91 
Q 1594 -91 976 548 
Q 359 1188 359 2328 
Q 359 3472 976 4111 
Q 1594 4750 2688 4750 
Q 3144 4750 3555 4637 
Q 3966 4525 4313 4306 
L 4313 3634 
Q 3963 3931 3569 4081 
Q 3175 4231 2741 4231 
Q 1884 4231 1454 3753 
Q 1025 3275 1025 2328 
Q 1025 1384 1454 906 
Q 1884 428 2741 428 
Q 3075 428 3337 486 
Q 3600 544 3809 666 
z
" transform="scale(0.015625)"/>
      <path id="DejaVuSans-6e" d="M 3513 2113 
L 3513 0 
L 2938 0 
L 2938 2094 
Q 2938 2591 2744 2837 
Q 2550 3084 2163 3084 
Q 1697 3084 1428 2787 
Q 1159 2491 1159 1978 
L 1159 0 
L 581 0 
L 581 3500 
L 1159 3500 
L 1159 2956 
Q 1366 3272 1645 3428 
Q 1925 3584 2291 3584 
Q 2894 3584 3203 3211 
Q 3513 2838 3513 2113 
z
" transform="scale(0.015625)"/>
     </defs>
     <use xlink:href="#DejaVuSans-50"/>
     <use xlink:href="#DejaVuSans-6f" x="56.677734"/>
     <use xlink:href="#DejaVuSans-6c" x="117.859375"/>
     <use xlink:href="#DejaVuSans-79" x="145.642578"/>
     <use xlink:href="#DejaVuSans-6d" x="204.822266"/>
     <use xlink:href="#DejaVuSans-65" x="302.234375"/>
     <use xlink:href="#DejaVuSans-72" x="363.757812"/>
     <use xlink:href="#DejaVuSans-20" x="404.871094"/>
     <use xlink:href="#DejaVuSans-53" x="436.658203"/>
     <use xlink:href="#DejaVuSans-74" x="500.134766"/>
     <use xlink:href="#DejaVuSans-72" x="539.34375"/>
     <use xlink:href="#DejaVuSans-75" x="580.457031"/>
     <use xlink:href="#DejaVuSans-63" x="643.835938"/>
     <use xlink:href="#DejaVuSans-74" x="698.816406"/>
     <use xlink:href="#DejaVuSans-75" x="738.025391"/>
     <use xlink:href="#DejaVuSans-72" x="801.404297"/>
     <use xlink:href="#DejaVuSans-65" x="840.267578"/>
     <use xlink:href="#DejaVuSans-20" x="901.791016"/>
     <use xlink:href="#DejaVuSans-77" x="933.578125"/>
     <use xlink:href="#DejaVuSans-69" x="1015.365234"/>
     <use xlink:href="#DejaVuSans-74" x="1043.148438"/>
     <use xlink:href="#DejaVuSans-68" x="1082.357422"/>
     <use xlink:href="#DejaVuSans-20" x="1145.736328"/>
     <use xlink:href="#DejaVuSans-52" x="1177.523438"/>
     <use xlink:href="#DejaVuSans-61" x="1244.755859"/>
     <use xlink:href="#DejaVuSans-64" x="1306.035156"/>
     <use xlink:href="#DejaVuSans-69" x="1369.511719"/>
     <use xlink:href="#DejaVuSans-75" x="1397.294922"/>
     <use xlink:href="#DejaVuSans-73" x="1460.673828"/>
     <use xlink:href="#DejaVuSans-20" x="1512.773438"/>
     <use xlink:href="#DejaVuSans-6f" x="1544.560547"/>
     <use xlink:href="#DejaVuSans-66" x="1605.742188"/>
     <use xlink:href="#DejaVuSans-20" x="1640.947266"/>
     <use xlink:href="#DejaVuSans-47" x="1672.734375"/>
     <use xlink:href="#DejaVuSans-79" x="1750.224609"/>
     <use xlink:href="#DejaVuSans-72" x="1809.404297"/>
     <use xlink:href="#DejaVuSans-61" x="1850.517578"/>
     <use xlink:href="#DejaVuSans-74" x="1911.796875"/>
     <use xlink:href="#DejaVuSans-69" x="1951.005859"/>
     <use xlink:href="#DejaVuSans-6f" x="1978.789062"/>
     <use xlink:href="#DejaVuSans-6e" x="2039.970703"/>
    </g>
   </g>
  </g>
  <g id="axes_2">
   <g id="patch_46">
    <path d="M 531.01 462.04 
L 997.2 462.04 
L 997.2 26.88 
L 531.01 26.88 
z
" style="fill: #ffffff"/>
   </g>
   <g id="patch_47">
    <path d="M 552.200455 462.04 
L 976.009545 462.04 
L 976.009545 47.601905 
L 552.200455 47.601905 
z
" clip-path="url(#p1879c75ab7)" style="fill: #0000ff; stroke: #000000; stroke-linejoin: miter"/>
   </g>
   <g id="matplotlib.axis_3">
    <g id="xtick_1">
     <g id="line2d_1">
      <defs>
       <path id="m36a5616843" d="M 0 0 
L 0 3.5 
" style="stroke: #000000; stroke-width: 0.8"/>
      </defs>
      <g>
       <use xlink:href="#m36a5616843" x="552.200455" y="462.04" style="stroke: #000000; stroke-width: 0.8"/>
      </g>
     </g>
     <g id="text_2">
      <!-- 0.6 -->
      <g transform="translate(544.248892 476.638438) scale(0.1 -0.1)">
       <defs>
        <path id="DejaVuSans-30" d="M 2034 4250 
Q 1547 4250 1301 3770 
Q 1056 3291 1056 2328 
Q 1056 1369 1301 889 
Q 1547 409 2034 409 
Q 2525 409 2770 889 
Q 3016 1369 3016 2328 
Q 3016 3291 2770 3770 
Q 2525 4250 2034 4250 
z
M 2034 4750 
Q 2819 4750 3233 4129 
Q 3647 3509 3647 2328 
Q 3647 1150 3233 529 
Q 2819 -91 2034 -91 
Q 1250 -91 836 529 
Q 422 1150 422 2328 
Q 422 3509 836 4129 
Q 1250 4750 2034 4750 
z
" transform="scale(0.015625)"/>
        <path id="DejaVuSans-2e" d="M 684 794 
L 1344 794 
L 1344 0 
L 684 0 
L 684 794 
z
" transform="scale(0.015625)"/>
        <path id="DejaVuSans-36" d="M 2113 2584 
Q 1688 2584 1439 2293 
Q 1191 2003 1191 1497 
Q 1191 994 1439 701 
Q 1688 409 2113 409 
Q 2538 409 2786 701 
Q 3034 994 3034 1497 
Q 3034 2003 2786 2293 
Q 2538 2584 2113 2584 
z
M 3366 4563 
L 3366 3988 
Q 3128 4100 2886 4159 
Q 2644 4219 2406 4219 
Q 1781 4219 1451 3797 
Q 1122 3375 1075 2522 
Q 1259 2794 1537 2939 
Q 1816 3084 2150 3084 
Q 2853 3084 3261 2657 
Q 3669 2231 3669 1497 
Q 3669 778 3244 343 
Q 2819 -91 2113 -91 
Q 1303 -91 875 529 
Q 447 1150 447 2328 
Q 447 3434 972 4092 
Q 1497 4750 2381 4750 
Q 2619 4750 2861 4703 
Q 3103 4656 3366 4563 
z
" transform="scale(0.015625)"/>
       </defs>
       <use xlink:href="#DejaVuSans-30"/>
       <use xlink:href="#DejaVuSans-2e" x="63.623047"/>
       <use xlink:href="#DejaVuSans-36" x="95.410156"/>
      </g>
     </g>
    </g>
    <g id="xtick_2">
     <g id="line2d_2">
      <g>
       <use xlink:href="#m36a5616843" x="605.176591" y="462.04" style="stroke: #000000; stroke-width: 0.8"/>
      </g>
     </g>
     <g id="text_3">
      <!-- 0.7 -->
      <g transform="translate(597.225028 476.638438) scale(0.1 -0.1)">
       <defs>
        <path id="DejaVuSans-37" d="M 525 4666 
L 3525 4666 
L 3525 4397 
L 1831 0 
L 1172 0 
L 2766 4134 
L 525 4134 
L 525 4666 
z
" transform="scale(0.015625)"/>
       </defs>
       <use xlink:href="#DejaVuSans-30"/>
       <use xlink:href="#DejaVuSans-2e" x="63.623047"/>
       <use xlink:href="#DejaVuSans-37" x="95.410156"/>
      </g>
     </g>
    </g>
    <g id="xtick_3">
     <g id="line2d_3">
      <g>
       <use xlink:href="#m36a5616843" x="658.152727" y="462.04" style="stroke: #000000; stroke-width: 0.8"/>
      </g>
     </g>
     <g id="text_4">
      <!-- 0.8 -->
      <g transform="translate(650.201165 476.638438) scale(0.1 -0.1)">
       <defs>
        <path id="DejaVuSans-38" d="M 2034 2216 
Q 1584 2216 1326 1975 
Q 1069 1734 1069 1313 
Q 1069 891 1326 650 
Q 1584 409 2034 409 
Q 2484 409 2743 651 
Q 3003 894 3003 1313 
Q 3003 1734 2745 1975 
Q 2488 2216 2034 2216 
z
M 1403 2484 
Q 997 2584 770 2862 
Q 544 3141 544 3541 
Q 544 4100 942 4425 
Q 1341 4750 2034 4750 
Q 2731 4750 3128 4425 
Q 3525 4100 3525 3541 
Q 3525 3141 3298 2862 
Q 3072 2584 2669 2484 
Q 3125 2378 3379 2068 
Q 3634 1759 3634 1313 
Q 3634 634 3220 271 
Q 2806 -91 2034 -91 
Q 1263 -91 848 271 
Q 434 634 434 1313 
Q 434 1759 690 2068 
Q 947 2378 1403 2484 
z
M 1172 3481 
Q 1172 3119 1398 2916 
Q 1625 2713 2034 2713 
Q 2441 2713 2670 2916 
Q 2900 3119 2900 3481 
Q 2900 3844 2670 4047 
Q 2441 4250 2034 4250 
Q 1625 4250 1398 4047 
Q 1172 3844 1172 3481 
z
" transform="scale(0.015625)"/>
       </defs>
       <use xlink:href="#DejaVuSans-30"/>
       <use xlink:href="#DejaVuSans-2e" x="63.623047"/>
       <use xlink:href="#DejaVuSans-38" x="95.410156"/>
      </g>
     </g>
    </g>
    <g id="xtick_4">
     <g id="line2d_4">
      <g>
       <use xlink:href="#m36a5616843" x="711.128864" y="462.04" style="stroke: #000000; stroke-width: 0.8"/>
      </g>
     </g>
     <g id="text_5">
      <!-- 0.9 -->
      <g transform="translate(703.177301 476.638438) scale(0.1 -0.1)">
       <defs>
        <path id="DejaVuSans-39" d="M 703 97 
L 703 672 
Q 941 559 1184 500 
Q 1428 441 1663 441 
Q 2288 441 2617 861 
Q 2947 1281 2994 2138 
Q 2813 1869 2534 1725 
Q 2256 1581 1919 1581 
Q 1219 1581 811 2004 
Q 403 2428 403 3163 
Q 403 3881 828 4315 
Q 1253 4750 1959 4750 
Q 2769 4750 3195 4129 
Q 3622 3509 3622 2328 
Q 3622 1225 3098 567 
Q 2575 -91 1691 -91 
Q 1453 -91 1209 -44 
Q 966 3 703 97 
z
M 1959 2075 
Q 2384 2075 2632 2365 
Q 2881 2656 2881 3163 
Q 2881 3666 2632 3958 
Q 2384 4250 1959 4250 
Q 1534 4250 1286 3958 
Q 1038 3666 1038 3163 
Q 1038 2656 1286 2365 
Q 1534 2075 1959 2075 
z
" transform="scale(0.015625)"/>
       </defs>
       <use xlink:href="#DejaVuSans-30"/>
       <use xlink:href="#DejaVuSans-2e" x="63.623047"/>
       <use xlink:href="#DejaVuSans-39" x="95.410156"/>
      </g>
     </g>
    </g>
    <g id="xtick_5">
     <g id="line2d_5">
      <g>
       <use xlink:href="#m36a5616843" x="764.105" y="462.04" style="stroke: #000000; stroke-width: 0.8"/>
      </g>
     </g>
     <g id="text_6">
      <!-- 1.0 -->
      <g transform="translate(756.153437 476.638438) scale(0.1 -0.1)">
       <defs>
        <path id="DejaVuSans-31" d="M 794 531 
L 1825 531 
L 1825 4091 
L 703 3866 
L 703 4441 
L 1819 4666 
L 2450 4666 
L 2450 531 
L 3481 531 
L 3481 0 
L 794 0 
L 794 531 
z
" transform="scale(0.015625)"/>
       </defs>
       <use xlink:href="#DejaVuSans-31"/>
       <use xlink:href="#DejaVuSans-2e" x="63.623047"/>
       <use xlink:href="#DejaVuSans-30" x="95.410156"/>
      </g>
     </g>
    </g>
    <g id="xtick_6">
     <g id="line2d_6">
      <g>
       <use xlink:href="#m36a5616843" x="817.081136" y="462.04" style="stroke: #000000; stroke-width: 0.8"/>
      </g>
     </g>
     <g id="text_7">
      <!-- 1.1 -->
      <g transform="translate(809.129574 476.638438) scale(0.1 -0.1)">
       <use xlink:href="#DejaVuSans-31"/>
       <use xlink:href="#DejaVuSans-2e" x="63.623047"/>
       <use xlink:href="#DejaVuSans-31" x="95.410156"/>
      </g>
     </g>
    </g>
    <g id="xtick_7">
     <g id="line2d_7">
      <g>
       <use xlink:href="#m36a5616843" x="870.057273" y="462.04" style="stroke: #000000; stroke-width: 0.8"/>
      </g>
     </g>
     <g id="text_8">
      <!-- 1.2 -->
      <g transform="translate(862.10571 476.638438) scale(0.1 -0.1)">
       <defs>
        <path id="DejaVuSans-32" d="M 1228 531 
L 3431 531 
L 3431 0 
L 469 0 
L 469 531 
Q 828 903 1448 1529 
Q 2069 2156 2228 2338 
Q 2531 2678 2651 2914 
Q 2772 3150 2772 3378 
Q 2772 3750 2511 3984 
Q 2250 4219 1831 4219 
Q 1534 4219 1204 4116 
Q 875 4013 500 3803 
L 500 4441 
Q 881 4594 1212 4672 
Q 1544 4750 1819 4750 
Q 2544 4750 2975 4387 
Q 3406 4025 3406 3419 
Q 3406 3131 3298 2873 
Q 3191 2616 2906 2266 
Q 2828 2175 2409 1742 
Q 1991 1309 1228 531 
z
" transform="scale(0.015625)"/>
       </defs>
       <use xlink:href="#DejaVuSans-31"/>
       <use xlink:href="#DejaVuSans-2e" x="63.623047"/>
       <use xlink:href="#DejaVuSans-32" x="95.410156"/>
      </g>
     </g>
    </g>
    <g id="xtick_8">
     <g id="line2d_8">
      <g>
       <use xlink:href="#m36a5616843" x="923.033409" y="462.04" style="stroke: #000000; stroke-width: 0.8"/>
      </g>
     </g>
     <g id="text_9">
      <!-- 1.3 -->
      <g transform="translate(915.081847 476.638438) scale(0.1 -0.1)">
       <defs>
        <path id="DejaVuSans-33" d="M 2597 2516 
Q 3050 2419 3304 2112 
Q 3559 1806 3559 1356 
Q 3559 666 3084 287 
Q 2609 -91 1734 -91 
Q 1441 -91 1130 -33 
Q 819 25 488 141 
L 488 750 
Q 750 597 1062 519 
Q 1375 441 1716 441 
Q 2309 441 2620 675 
Q 2931 909 2931 1356 
Q 2931 1769 2642 2001 
Q 2353 2234 1838 2234 
L 1294 2234 
L 1294 2753 
L 1863 2753 
Q 2328 2753 2575 2939 
Q 2822 3125 2822 3475 
Q 2822 3834 2567 4026 
Q 2313 4219 1838 4219 
Q 1578 4219 1281 4162 
Q 984 4106 628 3988 
L 628 4550 
Q 988 4650 1302 4700 
Q 1616 4750 1894 4750 
Q 2613 4750 3031 4423 
Q 3450 4097 3450 3541 
Q 3450 3153 3228 2886 
Q 3006 2619 2597 2516 
z
" transform="scale(0.015625)"/>
       </defs>
       <use xlink:href="#DejaVuSans-31"/>
       <use xlink:href="#DejaVuSans-2e" x="63.623047"/>
       <use xlink:href="#DejaVuSans-33" x="95.410156"/>
      </g>
     </g>
    </g>
    <g id="xtick_9">
     <g id="line2d_9">
      <g>
       <use xlink:href="#m36a5616843" x="976.009545" y="462.04" style="stroke: #000000; stroke-width: 0.8"/>
      </g>
     </g>
     <g id="text_10">
      <!-- 1.4 -->
      <g transform="translate(968.057983 476.638438) scale(0.1 -0.1)">
       <defs>
        <path id="DejaVuSans-34" d="M 2419 4116 
L 825 1625 
L 2419 1625 
L 2419 4116 
z
M 2253 4666 
L 3047 4666 
L 3047 1625 
L 3713 1625 
L 3713 1100 
L 3047 1100 
L 3047 0 
L 2419 0 
L 2419 1100 
L 313 1100 
L 313 1709 
L 2253 4666 
z
" transform="scale(0.015625)"/>
       </defs>
       <use xlink:href="#DejaVuSans-31"/>
       <use xlink:href="#DejaVuSans-2e" x="63.623047"/>
       <use xlink:href="#DejaVuSans-34" x="95.410156"/>
      </g>
     </g>
    </g>
    <g id="text_11">
     <!-- Number of Coupled Neighbors -->
     <g transform="translate(688.455781 490.316563) scale(0.1 -0.1)">
      <defs>
       <path id="DejaVuSans-4e" d="M 628 4666 
L 1478 4666 
L 3547 763 
L 3547 4666 
L 4159 4666 
L 4159 0 
L 3309 0 
L 1241 3903 
L 1241 0 
L 628 0 
L 628 4666 
z
" transform="scale(0.015625)"/>
       <path id="DejaVuSans-62" d="M 3116 1747 
Q 3116 2381 2855 2742 
Q 2594 3103 2138 3103 
Q 1681 3103 1420 2742 
Q 1159 2381 1159 1747 
Q 1159 1113 1420 752 
Q 1681 391 2138 391 
Q 2594 391 2855 752 
Q 3116 1113 3116 1747 
z
M 1159 2969 
Q 1341 3281 1617 3432 
Q 1894 3584 2278 3584 
Q 2916 3584 3314 3078 
Q 3713 2572 3713 1747 
Q 3713 922 3314 415 
Q 2916 -91 2278 -91 
Q 1894 -91 1617 61 
Q 1341 213 1159 525 
L 1159 0 
L 581 0 
L 581 4863 
L 1159 4863 
L 1159 2969 
z
" transform="scale(0.015625)"/>
       <path id="DejaVuSans-43" d="M 4122 4306 
L 4122 3641 
Q 3803 3938 3442 4084 
Q 3081 4231 2675 4231 
Q 1875 4231 1450 3742 
Q 1025 3253 1025 2328 
Q 1025 1406 1450 917 
Q 1875 428 2675 428 
Q 3081 428 3442 575 
Q 3803 722 4122 1019 
L 4122 359 
Q 3791 134 3420 21 
Q 3050 -91 2638 -91 
Q 1578 -91 968 557 
Q 359 1206 359 2328 
Q 359 3453 968 4101 
Q 1578 4750 2638 4750 
Q 3056 4750 3426 4639 
Q 3797 4528 4122 4306 
z
" transform="scale(0.015625)"/>
       <path id="DejaVuSans-70" d="M 1159 525 
L 1159 -1331 
L 581 -1331 
L 581 3500 
L 1159 3500 
L 1159 2969 
Q 1341 3281 1617 3432 
Q 1894 3584 2278 3584 
Q 2916 3584 3314 3078 
Q 3713 2572 3713 1747 
Q 3713 922 3314 415 
Q 2916 -91 2278 -91 
Q 1894 -91 1617 61 
Q 1341 213 1159 525 
z
M 3116 1747 
Q 3116 2381 2855 2742 
Q 2594 3103 2138 3103 
Q 1681 3103 1420 2742 
Q 1159 2381 1159 1747 
Q 1159 1113 1420 752 
Q 1681 391 2138 391 
Q 2594 391 2855 752 
Q 3116 1113 3116 1747 
z
" transform="scale(0.015625)"/>
       <path id="DejaVuSans-67" d="M 2906 1791 
Q 2906 2416 2648 2759 
Q 2391 3103 1925 3103 
Q 1463 3103 1205 2759 
Q 947 2416 947 1791 
Q 947 1169 1205 825 
Q 1463 481 1925 481 
Q 2391 481 2648 825 
Q 2906 1169 2906 1791 
z
M 3481 434 
Q 3481 -459 3084 -895 
Q 2688 -1331 1869 -1331 
Q 1566 -1331 1297 -1286 
Q 1028 -1241 775 -1147 
L 775 -588 
Q 1028 -725 1275 -790 
Q 1522 -856 1778 -856 
Q 2344 -856 2625 -561 
Q 2906 -266 2906 331 
L 2906 616 
Q 2728 306 2450 153 
Q 2172 0 1784 0 
Q 1141 0 747 490 
Q 353 981 353 1791 
Q 353 2603 747 3093 
Q 1141 3584 1784 3584 
Q 2172 3584 2450 3431 
Q 2728 3278 2906 2969 
L 2906 3500 
L 3481 3500 
L 3481 434 
z
" transform="scale(0.015625)"/>
      </defs>
      <use xlink:href="#DejaVuSans-4e"/>
      <use xlink:href="#DejaVuSans-75" x="74.804688"/>
      <use xlink:href="#DejaVuSans-6d" x="138.183594"/>
      <use xlink:href="#DejaVuSans-62" x="235.595703"/>
      <use xlink:href="#DejaVuSans-65" x="299.072266"/>
      <use xlink:href="#DejaVuSans-72" x="360.595703"/>
      <use xlink:href="#DejaVuSans-20" x="401.708984"/>
      <use xlink:href="#DejaVuSans-6f" x="433.496094"/>
      <use xlink:href="#DejaVuSans-66" x="494.677734"/>
      <use xlink:href="#DejaVuSans-20" x="529.882812"/>
      <use xlink:href="#DejaVuSans-43" x="561.669922"/>
      <use xlink:href="#DejaVuSans-6f" x="631.494141"/>
      <use xlink:href="#DejaVuSans-75" x="692.675781"/>
      <use xlink:href="#DejaVuSans-70" x="756.054688"/>
      <use xlink:href="#DejaVuSans-6c" x="819.53125"/>
      <use xlink:href="#DejaVuSans-65" x="847.314453"/>
      <use xlink:href="#DejaVuSans-64" x="908.837891"/>
      <use xlink:href="#DejaVuSans-20" x="972.314453"/>
      <use xlink:href="#DejaVuSans-4e" x="1004.101562"/>
      <use xlink:href="#DejaVuSans-65" x="1078.90625"/>
      <use xlink:href="#DejaVuSans-69" x="1140.429688"/>
      <use xlink:href="#DejaVuSans-67" x="1168.212891"/>
      <use xlink:href="#DejaVuSans-68" x="1231.689453"/>
      <use xlink:href="#DejaVuSans-62" x="1295.068359"/>
      <use xlink:href="#DejaVuSans-6f" x="1358.544922"/>
      <use xlink:href="#DejaVuSans-72" x="1419.726562"/>
      <use xlink:href="#DejaVuSans-73" x="1460.839844"/>
     </g>
    </g>
   </g>
   <g id="matplotlib.axis_4">
    <g id="ytick_1">
     <g id="line2d_10">
      <defs>
       <path id="mcf4a864d15" d="M 0 0 
L -3.5 0 
" style="stroke: #000000; stroke-width: 0.8"/>
      </defs>
      <g>
       <use xlink:href="#mcf4a864d15" x="531.01" y="462.04" style="stroke: #000000; stroke-width: 0.8"/>
      </g>
     </g>
     <g id="text_12">
      <!-- 0.00 -->
      <g transform="translate(501.744375 465.839219) scale(0.1 -0.1)">
       <use xlink:href="#DejaVuSans-30"/>
       <use xlink:href="#DejaVuSans-2e" x="63.623047"/>
       <use xlink:href="#DejaVuSans-30" x="95.410156"/>
       <use xlink:href="#DejaVuSans-30" x="159.033203"/>
      </g>
     </g>
    </g>
    <g id="ytick_2">
     <g id="line2d_11">
      <g>
       <use xlink:href="#mcf4a864d15" x="531.01" y="410.235238" style="stroke: #000000; stroke-width: 0.8"/>
      </g>
     </g>
     <g id="text_13">
      <!-- 0.25 -->
      <g transform="translate(501.744375 414.034457) scale(0.1 -0.1)">
       <defs>
        <path id="DejaVuSans-35" d="M 691 4666 
L 3169 4666 
L 3169 4134 
L 1269 4134 
L 1269 2991 
Q 1406 3038 1543 3061 
Q 1681 3084 1819 3084 
Q 2600 3084 3056 2656 
Q 3513 2228 3513 1497 
Q 3513 744 3044 326 
Q 2575 -91 1722 -91 
Q 1428 -91 1123 -41 
Q 819 9 494 109 
L 494 744 
Q 775 591 1075 516 
Q 1375 441 1709 441 
Q 2250 441 2565 725 
Q 2881 1009 2881 1497 
Q 2881 1984 2565 2268 
Q 2250 2553 1709 2553 
Q 1456 2553 1204 2497 
Q 953 2441 691 2322 
L 691 4666 
z
" transform="scale(0.015625)"/>
       </defs>
       <use xlink:href="#DejaVuSans-30"/>
       <use xlink:href="#DejaVuSans-2e" x="63.623047"/>
       <use xlink:href="#DejaVuSans-32" x="95.410156"/>
       <use xlink:href="#DejaVuSans-35" x="159.033203"/>
      </g>
     </g>
    </g>
    <g id="ytick_3">
     <g id="line2d_12">
      <g>
       <use xlink:href="#mcf4a864d15" x="531.01" y="358.430476" style="stroke: #000000; stroke-width: 0.8"/>
      </g>
     </g>
     <g id="text_14">
      <!-- 0.50 -->
      <g transform="translate(501.744375 362.229695) scale(0.1 -0.1)">
       <use xlink:href="#DejaVuSans-30"/>
       <use xlink:href="#DejaVuSans-2e" x="63.623047"/>
       <use xlink:href="#DejaVuSans-35" x="95.410156"/>
       <use xlink:href="#DejaVuSans-30" x="159.033203"/>
      </g>
     </g>
    </g>
    <g id="ytick_4">
     <g id="line2d_13">
      <g>
       <use xlink:href="#mcf4a864d15" x="531.01" y="306.625714" style="stroke: #000000; stroke-width: 0.8"/>
      </g>
     </g>
     <g id="text_15">
      <!-- 0.75 -->
      <g transform="translate(501.744375 310.424933) scale(0.1 -0.1)">
       <use xlink:href="#DejaVuSans-30"/>
       <use xlink:href="#DejaVuSans-2e" x="63.623047"/>
       <use xlink:href="#DejaVuSans-37" x="95.410156"/>
       <use xlink:href="#DejaVuSans-35" x="159.033203"/>
      </g>
     </g>
    </g>
    <g id="ytick_5">
     <g id="line2d_14">
      <g>
       <use xlink:href="#mcf4a864d15" x="531.01" y="254.820952" style="stroke: #000000; stroke-width: 0.8"/>
      </g>
     </g>
     <g id="text_16">
      <!-- 1.00 -->
      <g transform="translate(501.744375 258.620171) scale(0.1 -0.1)">
       <use xlink:href="#DejaVuSans-31"/>
       <use xlink:href="#DejaVuSans-2e" x="63.623047"/>
       <use xlink:href="#DejaVuSans-30" x="95.410156"/>
       <use xlink:href="#DejaVuSans-30" x="159.033203"/>
      </g>
     </g>
    </g>
    <g id="ytick_6">
     <g id="line2d_15">
      <g>
       <use xlink:href="#mcf4a864d15" x="531.01" y="203.01619" style="stroke: #000000; stroke-width: 0.8"/>
      </g>
     </g>
     <g id="text_17">
      <!-- 1.25 -->
      <g transform="translate(501.744375 206.815409) scale(0.1 -0.1)">
       <use xlink:href="#DejaVuSans-31"/>
       <use xlink:href="#DejaVuSans-2e" x="63.623047"/>
       <use xlink:href="#DejaVuSans-32" x="95.410156"/>
       <use xlink:href="#DejaVuSans-35" x="159.033203"/>
      </g>
     </g>
    </g>
    <g id="ytick_7">
     <g id="line2d_16">
      <g>
       <use xlink:href="#mcf4a864d15" x="531.01" y="151.211429" style="stroke: #000000; stroke-width: 0.8"/>
      </g>
     </g>
     <g id="text_18">
      <!-- 1.50 -->
      <g transform="translate(501.744375 155.010647) scale(0.1 -0.1)">
       <use xlink:href="#DejaVuSans-31"/>
       <use xlink:href="#DejaVuSans-2e" x="63.623047"/>
       <use xlink:href="#DejaVuSans-35" x="95.410156"/>
       <use xlink:href="#DejaVuSans-30" x="159.033203"/>
      </g>
     </g>
    </g>
    <g id="ytick_8">
     <g id="line2d_17">
      <g>
       <use xlink:href="#mcf4a864d15" x="531.01" y="99.406667" style="stroke: #000000; stroke-width: 0.8"/>
      </g>
     </g>
     <g id="text_19">
      <!-- 1.75 -->
      <g transform="translate(501.744375 103.205885) scale(0.1 -0.1)">
       <use xlink:href="#DejaVuSans-31"/>
       <use xlink:href="#DejaVuSans-2e" x="63.623047"/>
       <use xlink:href="#DejaVuSans-37" x="95.410156"/>
       <use xlink:href="#DejaVuSans-35" x="159.033203"/>
      </g>
     </g>
    </g>
    <g id="ytick_9">
     <g id="line2d_18">
      <g>
       <use xlink:href="#mcf4a864d15" x="531.01" y="47.601905" style="stroke: #000000; stroke-width: 0.8"/>
      </g>
     </g>
     <g id="text_20">
      <!-- 2.00 -->
      <g transform="translate(501.744375 51.401124) scale(0.1 -0.1)">
       <use xlink:href="#DejaVuSans-32"/>
       <use xlink:href="#DejaVuSans-2e" x="63.623047"/>
       <use xlink:href="#DejaVuSans-30" x="95.410156"/>
       <use xlink:href="#DejaVuSans-30" x="159.033203"/>
      </g>
     </g>
    </g>
    <g id="text_21">
     <!-- Monomer Count -->
     <g transform="translate(495.664688 284.501406) rotate(-90) scale(0.1 -0.1)">
      <defs>
       <path id="DejaVuSans-4d" d="M 628 4666 
L 1569 4666 
L 2759 1491 
L 3956 4666 
L 4897 4666 
L 4897 0 
L 4281 0 
L 4281 4097 
L 3078 897 
L 2444 897 
L 1241 4097 
L 1241 0 
L 628 0 
L 628 4666 
z
" transform="scale(0.015625)"/>
      </defs>
      <use xlink:href="#DejaVuSans-4d"/>
      <use xlink:href="#DejaVuSans-6f" x="86.279297"/>
      <use xlink:href="#DejaVuSans-6e" x="147.460938"/>
      <use xlink:href="#DejaVuSans-6f" x="210.839844"/>
      <use xlink:href="#DejaVuSans-6d" x="272.021484"/>
      <use xlink:href="#DejaVuSans-65" x="369.433594"/>
      <use xlink:href="#DejaVuSans-72" x="430.957031"/>
      <use xlink:href="#DejaVuSans-20" x="472.070312"/>
      <use xlink:href="#DejaVuSans-43" x="503.857422"/>
      <use xlink:href="#DejaVuSans-6f" x="573.681641"/>
      <use xlink:href="#DejaVuSans-75" x="634.863281"/>
      <use xlink:href="#DejaVuSans-6e" x="698.242188"/>
      <use xlink:href="#DejaVuSans-74" x="761.621094"/>
     </g>
    </g>
   </g>
   <g id="patch_48">
    <path d="M 531.01 462.04 
L 531.01 26.88 
" style="fill: none; stroke: #000000; stroke-width: 0.8; stroke-linejoin: miter; stroke-linecap: square"/>
   </g>
   <g id="patch_49">
    <path d="M 997.2 462.04 
L 997.2 26.88 
" style="fill: none; stroke: #000000; stroke-width: 0.8; stroke-linejoin: miter; stroke-linecap: square"/>
   </g>
   <g id="patch_50">
    <path d="M 531.01 462.04 
L 997.2 462.04 
" style="fill: none; stroke: #000000; stroke-width: 0.8; stroke-linejoin: miter; stroke-linecap: square"/>
   </g>
   <g id="patch_51">
    <path d="M 531.01 26.88 
L 997.2 26.88 
" style="fill: none; stroke: #000000; stroke-width: 0.8; stroke-linejoin: miter; stroke-linecap: square"/>
   </g>
   <g id="text_22">
    <!-- Histogram of Coupled Neighbors -->
    <g transform="translate(666.304062 20.88) scale(0.12 -0.12)">
     <defs>
      <path id="DejaVuSans-48" d="M 628 4666 
L 1259 4666 
L 1259 2753 
L 3553 2753 
L 3553 4666 
L 4184 4666 
L 4184 0 
L 3553 0 
L 3553 2222 
L 1259 2222 
L 1259 0 
L 628 0 
L 628 4666 
z
" transform="scale(0.015625)"/>
     </defs>
     <use xlink:href="#DejaVuSans-48"/>
     <use xlink:href="#DejaVuSans-69" x="75.195312"/>
     <use xlink:href="#DejaVuSans-73" x="102.978516"/>
     <use xlink:href="#DejaVuSans-74" x="155.078125"/>
     <use xlink:href="#DejaVuSans-6f" x="194.287109"/>
     <use xlink:href="#DejaVuSans-67" x="255.46875"/>
     <use xlink:href="#DejaVuSans-72" x="318.945312"/>
     <use xlink:href="#DejaVuSans-61" x="360.058594"/>
     <use xlink:href="#DejaVuSans-6d" x="421.337891"/>
     <use xlink:href="#DejaVuSans-20" x="518.75"/>
     <use xlink:href="#DejaVuSans-6f" x="550.537109"/>
     <use xlink:href="#DejaVuSans-66" x="611.71875"/>
     <use xlink:href="#DejaVuSans-20" x="646.923828"/>
     <use xlink:href="#DejaVuSans-43" x="678.710938"/>
     <use xlink:href="#DejaVuSans-6f" x="748.535156"/>
     <use xlink:href="#DejaVuSans-75" x="809.716797"/>
     <use xlink:href="#DejaVuSans-70" x="873.095703"/>
     <use xlink:href="#DejaVuSans-6c" x="936.572266"/>
     <use xlink:href="#DejaVuSans-65" x="964.355469"/>
     <use xlink:href="#DejaVuSans-64" x="1025.878906"/>
     <use xlink:href="#DejaVuSans-20" x="1089.355469"/>
     <use xlink:href="#DejaVuSans-4e" x="1121.142578"/>
     <use xlink:href="#DejaVuSans-65" x="1195.947266"/>
     <use xlink:href="#DejaVuSans-69" x="1257.470703"/>
     <use xlink:href="#DejaVuSans-67" x="1285.253906"/>
     <use xlink:href="#DejaVuSans-68" x="1348.730469"/>
     <use xlink:href="#DejaVuSans-62" x="1412.109375"/>
     <use xlink:href="#DejaVuSans-6f" x="1475.585938"/>
     <use xlink:href="#DejaVuSans-72" x="1536.767578"/>
     <use xlink:href="#DejaVuSans-73" x="1577.880859"/>
    </g>
   </g>
  </g>
 </g>
 <defs>
  <clipPath id="p13c97e8cb7">
   <rect x="26.315" y="26.88" width="435.16" height="435.16"/>
  </clipPath>
  <clipPath id="p1879c75ab7">
   <rect x="531.01" y="26.88" width="466.19" height="435.16"/>
  </clipPath>
 </defs>
</svg>
